HIERARCHY
ROOT Hips
{
	OFFSET 0.000000 0.000000 0.000000 
	CHANNELS 6 Xposition Yposition Zposition Yrotation Zrotation Xrotation 
	JOINT Lumbar
	{
		OFFSET 0.000000 0.000000 0.000000 
		CHANNELS 3 Zrotation Xrotation Yrotation
		JOINT Neck
		{
			OFFSET 0.000000 0.445665 0.000000 
			CHANNELS 3 Zrotation Xrotation Yrotation
			End Site
			{
				OFFSET 0.000000 0.227535 0.000000 
			}
		}
		JOINT RightShoulder
		{
			OFFSET 0.019635 0.377685 0.194865 
			CHANNELS 3 Zrotation Xrotation Yrotation
			JOINT RightElbow
			{
				OFFSET 0.000000 -0.243375 0.000000 
				CHANNELS 2 Zrotation Yrotation
				JOINT RightWrist
				{
					OFFSET 0.000000 -0.264825 0.000000 
					CHANNELS 2 Zrotation Xrotation
					End Site
					{
						OFFSET 0.006600 -0.176220 0.000990 
					}
				}
			}
		}
		JOINT LeftShoulder
		{
			OFFSET 0.019635 0.377685 -0.194865 
			CHANNELS 3 Zrotation Xrotation Yrotation
			JOINT LeftElbow
			{
				OFFSET 0.000000 -0.243375 0.000000 
				CHANNELS 2 Zrotation Yrotation
				JOINT LeftWrist
				{
					OFFSET 0.000000 -0.264825 0.000000 
					CHANNELS 2 Zrotation Xrotation
					End Site
					{
						OFFSET 0.006600 -0.176220 -0.000990 
					}
				}
			}
		}
	}
	JOINT RightHip
	{
		OFFSET 0.052140 -0.069960 0.075570 
		CHANNELS 3 Zrotation Xrotation Yrotation
		JOINT RightKnee
		{
			OFFSET 0.000000 -0.402270 0.000000 
			CHANNELS 1 Zrotation
			JOINT RightAnkle
			{
				OFFSET 0.000000 -0.404085 0.000000 
				CHANNELS 3 Zrotation Xrotation Yrotation
				End Site
				{
					OFFSET 0.204105 -0.089430 0.008415 
				}
			}
		}
	}
	JOINT LeftHip
	{
		OFFSET 0.052140 -0.069960 -0.075570 
		CHANNELS 3 Zrotation Xrotation Yrotation
		JOINT LeftKnee
		{
			OFFSET 0.000000 -0.402270 0.000000 
			CHANNELS 1 Zrotation
			JOINT LeftAnkle
			{
				OFFSET 0.000000 -0.404085 0.000000 
				CHANNELS 3 Zrotation Xrotation Yrotation
				End Site
				{
					OFFSET 0.204105 -0.089430 -0.008415 
				}
			}
		}
	}
}
MOTION
Frames: 23
Frame Time: 0.02
-0 0.95578 0 179.75516 0 -4.41248 5.25597 5.92323 -1.85111 -30.41627 4.66263 3.37624 25.74336 -20.21831 11.99843 12.02478 81.90503 -1.98524 -5.36778 24.9741 7.36201 -15.39518 9.98829 -80.54607 -2.98066 2.97016 -5.03882 6.17578 -0.66646 -7.55577 -10.7945 -2.63677 -9.67796 -6.69145 5.00272 17.34897 -6.15765 -3.80466 3.68255 8.20099
8e-05 0.95593 -0.0008 179.69497 0 -4.43656 5.24174 5.82238 -1.92788 -30.03324 4.62405 3.16111 25.45368 -19.98541 12.05308 11.95497 81.85618 -1.95849 -5.35296 24.76078 7.63425 -15.5026 10.08076 -80.60189 -2.99368 3.02186 -4.93798 6.23605 -0.52961 -7.72461 -10.80687 -2.64669 -9.74372 -6.50317 5.10229 17.26981 -6.54789 -3.72588 3.71843 8.3757
0.00016 0.95608 -0.00159 179.63508 0 -4.46013 5.22737 5.72108 -2.00476 -29.65164 4.58616 2.94746 25.16485 -19.75448 12.10968 11.88549 81.80776 -1.93176 -5.33807 24.54876 7.90465 -15.60673 10.17278 -80.6576 -3.00687 3.07365 -4.83778 6.29556 -0.39377 -7.89211 -10.81904 -2.65651 -9.80895 -6.31604 5.20084 17.19111 -6.9354 -3.64798 3.75402 8.54933
0.00025 0.95622 -0.00237 179.57569 0 -4.4826 5.21221 5.61771 -2.08274 -29.2723 4.55048 2.73806 24.87675 -19.52887 12.1739 11.81692 81.76046 -1.90481 -5.32281 24.33976 8.17073 -15.69985 10.26421 -80.7136 -3.02074 3.1264 -4.73834 6.35376 -0.26091 -8.0575 -10.83046 -2.66603 -9.87324 -6.13032 5.29746 17.11185 -7.31892 -3.57134 3.78896 8.72241
0.00029 0.95638 -0.0032 179.51351 0 -4.51176 5.20114 5.52612 -2.15477 -28.8813 4.50288 2.50661 24.58495 -19.27473 12.19692 11.74382 81.70712 -1.87897 -5.30956 24.11466 8.46014 -15.8526 10.35916 -80.7683 -3.03087 3.17415 -4.63392 6.42024 -0.11258 -8.23601 -10.84573 -2.67716 -9.94318 -5.93548 5.40575 17.03362 -7.72731 -3.48627 3.82757 8.9009
0.00044 0.95651 -0.00393 179.4574 0 -4.52615 5.18148 5.40915 -2.2394 -28.51514 4.48069 2.32174 24.30114 -19.0814 12.30762 11.68017 81.66667 -1.85084 -5.29202 23.92391 8.6996 -15.87821 10.44632 -80.82553 -3.049 3.2324 -4.5408 6.46825 0.00307 -8.38528 -10.85296 -2.68486 -10.00065 -5.76125 5.48827 16.95457 -8.08016 -3.42027 3.85821 9.06609
0.00088 0.95655 -0.00444 179.41657 0 -4.50385 5.13608 5.2214 -2.36189 -28.21171 4.52927 2.26759 24.03354 -19.05521 12.66708 11.64361 81.6613 -1.8151 -5.26204 23.82568 8.80533 -15.54828 10.51561 -80.89285 -3.08964 3.32264 -4.47156 6.47218 0.02635 -8.46611 -10.83648 -2.68295 -10.02771 -5.63142 5.50761 16.85952 -8.30523 -3.39705 3.86827 9.21228
0.00142 0.95656 -0.00484 179.3823 0 -4.466 5.08228 5.00821 -2.49671 -27.93412 4.60342 2.26001 23.77483 -19.09062 13.11385 11.61638 81.66901 -1.77724 -5.2278 23.76248 8.85988 -15.09096 10.57649 -80.96224 -3.13827 3.42302 -4.41491 6.45624 0.01678 -8.51531 -10.81221 -2.67756 -10.04145 -5.52443 5.49955 16.76568 -8.4699 -3.3947 3.87003 9.34217
0.00191 0.95659 -0.00527 179.3457 0 -4.43241 5.03362 4.80654 -2.62404 -27.64813 4.66558 2.22972 23.51552 -19.09823 13.51729 11.58415 81.67106 -1.74118 -5.19587 23.68462 8.93537 -14.69369 10.63888 -81.02872 -3.18314 3.51696 -4.35725 6.44479 0.02396 -8.57098 -10.7924 -2.67384 -10.0587 -5.41511 5.49881 16.68059 -8.64569 -3.38937 3.87469 9.46793
0.00242 0.9566 -0.00579 179.30554 0 -4.41016 4.97956 4.60401 -2.75919 -27.34803 4.7294 2.20603 23.24164 -19.10469 13.93766 11.55502 81.67192 -1.70164 -5.16237 23.60133 9.02103 -14.2852 10.71085 -81.10344 -3.22882 3.61868 -4.28 6.45223 0.02452 -8.6597 -10.76848 -2.66982 -10.08672 -5.27232 5.51952 16.55781 -8.88987 -3.35722 3.88309 9.64149
0.00291 0.95664 -0.00608 179.27537 0 -4.36124 4.93454 4.39854 -2.88111 -27.08349 4.79571 2.17957 23.00032 -19.12859 14.34154 11.52181 81.67833 -1.66878 -5.13111 23.53782 9.07282 -13.87254 10.76109 -81.16156 -3.27436 3.70655 -4.2462 6.41593 0.02969 -8.67243 -10.75156 -2.6655 -10.08911 -5.20407 5.4893 16.51185 -8.97783 -3.38514 3.88165 9.71271
0.00329 0.95675 -0.00582 179.26243 0 -4.23702 4.91837 4.17982 -2.96254 -26.9109 4.8638 2.1351 22.84655 -19.18237 14.69592 11.47347 81.69722 -1.65538 -5.10729 23.51967 9.04819 -13.45639 10.7515 -81.17283 -3.3206 3.75433 -4.33169 6.26098 0.06777 -8.48052 -10.75318 -2.66211 -10.02461 -5.34084 5.32295 16.69491 -8.64453 -3.58002 3.85582 9.49598
0.00365 0.95689 -0.00532 179.26087 0 -4.08761 4.91132 3.96122 -3.0304 -26.77364 4.93337 2.08625 22.72582 -19.25237 15.02778 11.42094 81.72117 -1.64875 -5.08584 23.52073 8.99026 -13.04506 10.72071 -81.16738 -3.3659 3.78774 -4.45975 6.06323 0.1096 -8.21414 -10.76257 -2.6584 -9.93489 -5.55084 5.10673 16.95223 -8.15712 -3.83337 3.82028 9.17855
0.00404 0.95701 -0.00488 179.2599 0 -3.95323 4.89882 3.7499 -3.10512 -26.61952 5.00138 2.03847 22.58938 -19.31683 15.35818 11.37142 81.74263 -1.63861 -5.06317 23.51291 8.94474 -12.64628 10.70086 -81.17001 -3.40954 3.82734 -4.56708 5.88681 0.14146 -7.98296 -10.77019 -2.65421 -9.85602 -5.7243 4.91476 17.16402 -7.74312 -4.05601 3.78866 8.91333
0.00435 0.95715 -0.00465 179.23511 0 -3.80283 4.89128 3.50638 -3.1774 -26.46775 5.07372 1.99535 22.4539 -19.37495 15.7397 11.31779 81.76547 -1.62996 -5.04096 23.50528 8.90945 -12.17953 10.67517 -81.17094 -3.46202 3.86867 -4.68179 5.70163 0.20607 -7.74315 -10.77024 -2.65241 -9.77835 -5.91273 4.71504 17.42474 -7.3121 -4.2973 3.75868 8.62031
0.00482 0.95727 -0.00392 179.26222 0 -3.68044 4.87602 3.3307 -3.25127 -26.32158 5.13747 1.94196 22.327 -19.45028 16.00986 11.27134 81.78629 -1.62016 -5.01843 23.50345 8.84493 -11.85876 10.65675 -81.17111 -3.49605 3.90294 -4.7897 5.52496 0.20506 -7.50628 -10.78783 -2.64577 -9.69352 -6.08655 4.52009 17.6022 -6.88155 -4.51282 3.72326 8.36149
0.0057 0.95732 -0.00192 179.43228 0 -3.63793 4.83396 3.33898 -3.33365 -26.16033 5.17338 1.85156 22.191 -19.56039 15.96354 11.24806 81.80183 -1.60299 -4.99433 23.49394 8.71429 -11.92697 10.66344 -81.17582 -3.47684 3.92027 -4.87922 5.38095 0.01191 -7.27837 -10.85316 -2.6244 -9.5857 -6.20683 4.34954 17.52304 -6.48263 -4.64748 3.67382 8.22176
0.00675 0.95735 0.00057 179.65341 0 -3.62519 4.78424 3.41615 -3.41783 -26.00691 5.2011 1.75243 22.06675 -19.68824 15.80801 11.23178 81.81485 -1.58495 -4.96992 23.49227 8.55478 -12.14503 10.67826 -81.17993 -3.4395 3.9311 -4.95772 5.24738 -0.24474 -7.06048 -10.93542 -2.59848 -9.47373 -6.30906 4.18575 17.35937 -6.0908 -4.75333 3.61954 8.1199
0.00774 0.95739 0.00288 179.84989 0 -3.60128 4.74051 3.46427 -3.50064 -25.86477 5.23503 1.66362 21.95369 -19.81389 15.71174 11.21059 81.8279 -1.569 -4.94569 23.50015 8.40406 -12.30357 10.68945 -81.18252 -3.41206 3.9455 -5.03494 5.10995 -0.46637 -6.84816 -11.0095 -2.57563 -9.36941 -6.41608 4.01971 17.23968 -5.70136 -4.86913 3.56846 8.00093
0.00866 0.95743 0.00505 180.05402 0 -3.56663 4.68746 3.50341 -3.58551 -25.66338 5.25884 1.54838 21.77332 -19.91687 15.5748 11.19608 81.8457 -1.54608 -4.92118 23.45622 8.26899 -12.42578 10.69953 -81.19177 -3.37762 3.95687 -5.14283 4.96707 -0.71646 -6.586 -11.08698 -2.5485 -9.23834 -6.53929 3.8487 17.09802 -5.28441 -4.99983 3.51285 7.87845
0.00978 0.95747 0.00761 180.2527 0 -3.56164 4.65066 3.57693 -3.66645 -25.58412 5.30134 1.4855 21.73386 -20.0692 15.49601 11.16997 81.85313 -1.53745 -4.89741 23.51824 8.0967 -12.65944 10.71428 -81.18764 -3.35342 3.97312 -5.18036 4.83882 -0.91921 -6.4366 -11.15995 -2.52923 -9.16424 -6.62454 3.68997 16.98234 -4.92644 -5.09244 3.46559 7.77301
0.01141 0.95751 0.01115 180.43591 0 -3.63212 4.67049 3.73367 -3.73837 -25.86244 5.40181 1.57538 22.0943 -20.36994 15.61388 11.10585 81.83105 -1.56834 -4.87372 23.90071 7.81308 -13.16068 10.73837 -81.14303 -3.36234 4.00488 -5.05294 4.74687 -1.00207 -6.55048 -11.22824 -2.53234 -9.23278 -6.60012 3.56657 16.9479 -4.74811 -5.08186 3.44339 7.71116
0.01326 0.95754 0.01505 180.60914 0 -3.73126 4.70466 3.92122 -3.80603 -26.25859 5.52095 1.71735 22.59315 -20.71691 15.7935 11.03121 81.79909 -1.61394 -4.85139 24.38337 7.49582 -13.76836 10.76704 -81.08569 -3.38208 4.04166 -4.84907 4.67 -1.02957 -6.78756 -11.28937 -2.54348 -9.36203 -6.53932 3.45495 16.94423 -4.62645 -5.0346 3.42969 7.66479
